<svg xmlns="http://www.w3.org/2000/svg" width="48" height="48" fill="none"><g clip-path="url(#a)"><g clip-path="url(#b)"><g filter="url(#c)"><path fill="url(#d)" d="M21 42c11.598 0 21-9.402 21-21S32.598 0 21 0 0 9.402 0 21s9.402 21 21 21Z"/></g><path fill="url(#e)" d="M21 1.313c10.854 0 19.688 8.833 19.688 19.687 0 10.854-8.834 19.688-19.688 19.688S1.312 31.854 1.312 21 10.146 1.312 21 1.312ZM21 0C9.398 0 0 9.398 0 21s9.398 21 21 21 21-9.398 21-21S32.602 0 21 0Z"/><g filter="url(#f)"><path fill="url(#g)" d="M26.25 32.813v-2.626h-10.5v2.625h10.5Z"/><path fill="url(#h)" d="M28.875 27.563H26.25v2.625h2.625v-2.625Z"/><path fill="url(#i)" d="M15.75 27.563h-2.625v2.625h2.625v-2.625Z"/><path fill="url(#j)" d="M31.5 24.938h-2.625v2.625H31.5v-2.625Z"/><path fill="url(#k)" d="M31.5 14.438h-2.625v2.624H31.5v-2.625Z"/><path fill="url(#l)" d="M10.5 17.063H7.875v2.625H10.5v2.625H7.875v2.625H10.5v2.625h2.625v-2.625h10.5v-2.625h-10.5v-2.625H26.25v-2.625H13.125v-2.625H10.5v2.624Z"/><path fill="url(#m)" d="M28.875 11.813H26.25v2.624h2.625v-2.624Z"/><path fill="url(#n)" d="M15.75 11.813h-2.625v2.624h2.625v-2.624Z"/><path fill="url(#o)" d="M15.75 9.188v2.624h10.5V9.188h-10.5Z"/></g></g><path fill="#fff" d="M40.888 27.76A21.056 21.056 0 0 1 27.76 40.888c-.17-.769-.26-1.568-.26-2.388 0-6.075 4.925-11 11-11 .82 0 1.62.09 2.388.26Z"/><g clip-path="url(#p)"><circle cx="38.5" cy="38.5" r="9.5" fill="#213147"/><g clip-path="url(#q)"><path fill="#213147" d="M32.667 35.707v5.589c0 .355.19.685.5.861l4.835 2.793a.991.991 0 0 0 .996 0l4.84-2.793a1 1 0 0 0 .5-.861v-5.589a.998.998 0 0 0-.5-.864l-4.84-2.793a.991.991 0 0 0-.996 0l-4.839 2.793a1.005 1.005 0 0 0-.496.864Z"/><path fill="#12AAFF" d="m39.559 39.584-.692 1.89a.223.223 0 0 0 0 .163l1.185 3.255 1.374-.793-1.648-4.518a.116.116 0 0 0-.219.003ZM40.94 36.4c-.037-.105-.182-.105-.223 0l-.692 1.89a.223.223 0 0 0 0 .163l1.945 5.332 1.374-.794L40.94 36.4Z"/><path fill="#9DCCED" d="M38.502 32.256a.2.2 0 0 1 .098.027l5.234 3.023c.06.033.098.098.098.168v6.045c0 .07-.037.135-.098.169L38.6 44.713a.203.203 0 0 1-.098.027.204.204 0 0 1-.098-.027l-5.234-3.022a.192.192 0 0 1-.098-.169v-6.048a.19.19 0 0 1 .098-.168l5.234-3.023a.204.204 0 0 1 .098-.027Zm0-.881a1.1 1.1 0 0 0-.54.145l-5.234 3.022c-.331.193-.54.547-.54.932v6.045c0 .385.206.743.54.935l5.234 3.022a1.08 1.08 0 0 0 1.08 0l5.234-3.022c.335-.192.54-.547.54-.935v-6.045a1.08 1.08 0 0 0-.54-.935l-5.234-3.019a1.109 1.109 0 0 0-.54-.145Z"/><path fill="#213147" d="m35.041 43.791.483-1.316.966.803-.902.828-.547-.315Z"/><path fill="#fff" d="M38.06 35.046h-1.327a.236.236 0 0 0-.223.155L33.667 43l1.374.794 3.134-8.59a.12.12 0 0 0-.115-.16Zm2.323 0h-1.327c-.098 0-.19.06-.223.155l-3.245 8.904 1.374.794 3.532-9.695c.03-.077-.03-.158-.111-.158Z"/></g></g></g><defs><linearGradient id="d" x1="21" x2="21" y1="42" y2="0" gradientUnits="userSpaceOnUse"><stop stop-color="#424756"/><stop offset=".31" stop-color="#505565"/><stop offset=".42" stop-color="#5F6475"/><stop offset=".61" stop-color="#747A8B"/><stop offset=".73" stop-color="#7C8394"/><stop offset=".88" stop-color="#757C8C"/><stop offset="1" stop-color="#6E7484"/></linearGradient><linearGradient id="e" x1="21" x2="21" y1="42" y2="0" gradientUnits="userSpaceOnUse"><stop stop-color="#6D6E7C"/><stop offset=".17" stop-color="#7A7C8A"/><stop offset=".51" stop-color="#9EA2B1"/><stop offset=".67" stop-color="#B3B8C7"/></linearGradient><linearGradient id="g" x1="19.688" x2="19.688" y1="10.5" y2="31.281" gradientUnits="userSpaceOnUse"><stop offset=".4" stop-color="#fff"/><stop offset=".54" stop-color="#EAEAEC"/><stop offset=".84" stop-color="#C4C6CB"/><stop offset=".99" stop-color="#B6B8BF"/></linearGradient><linearGradient id="h" x1="19.688" x2="19.688" y1="10.5" y2="31.281" gradientUnits="userSpaceOnUse"><stop offset=".4" stop-color="#fff"/><stop offset=".54" stop-color="#EAEAEC"/><stop offset=".84" stop-color="#C4C6CB"/><stop offset=".99" stop-color="#B6B8BF"/></linearGradient><linearGradient id="i" x1="19.688" x2="19.688" y1="10.5" y2="31.281" gradientUnits="userSpaceOnUse"><stop offset=".4" stop-color="#fff"/><stop offset=".54" stop-color="#EAEAEC"/><stop offset=".84" stop-color="#C4C6CB"/><stop offset=".99" stop-color="#B6B8BF"/></linearGradient><linearGradient id="j" x1="19.688" x2="19.688" y1="10.5" y2="31.281" gradientUnits="userSpaceOnUse"><stop offset=".4" stop-color="#fff"/><stop offset=".54" stop-color="#EAEAEC"/><stop offset=".84" stop-color="#C4C6CB"/><stop offset=".99" stop-color="#B6B8BF"/></linearGradient><linearGradient id="k" x1="19.688" x2="19.688" y1="10.5" y2="31.281" gradientUnits="userSpaceOnUse"><stop offset=".4" stop-color="#fff"/><stop offset=".54" stop-color="#EAEAEC"/><stop offset=".84" stop-color="#C4C6CB"/><stop offset=".99" stop-color="#B6B8BF"/></linearGradient><linearGradient id="l" x1="19.688" x2="19.688" y1="10.5" y2="31.281" gradientUnits="userSpaceOnUse"><stop offset=".4" stop-color="#fff"/><stop offset=".54" stop-color="#EAEAEC"/><stop offset=".84" stop-color="#C4C6CB"/><stop offset=".99" stop-color="#B6B8BF"/></linearGradient><linearGradient id="m" x1="19.688" x2="19.688" y1="10.5" y2="31.281" gradientUnits="userSpaceOnUse"><stop offset=".4" stop-color="#fff"/><stop offset=".54" stop-color="#EAEAEC"/><stop offset=".84" stop-color="#C4C6CB"/><stop offset=".99" stop-color="#B6B8BF"/></linearGradient><linearGradient id="n" x1="19.688" x2="19.688" y1="10.5" y2="31.281" gradientUnits="userSpaceOnUse"><stop offset=".4" stop-color="#fff"/><stop offset=".54" stop-color="#EAEAEC"/><stop offset=".84" stop-color="#C4C6CB"/><stop offset=".99" stop-color="#B6B8BF"/></linearGradient><linearGradient id="o" x1="19.688" x2="19.688" y1="10.5" y2="31.281" gradientUnits="userSpaceOnUse"><stop offset=".4" stop-color="#fff"/><stop offset=".54" stop-color="#EAEAEC"/><stop offset=".84" stop-color="#C4C6CB"/><stop offset=".99" stop-color="#B6B8BF"/></linearGradient><clipPath id="a"><path fill="#fff" d="M0 0h48v48H0z"/></clipPath><clipPath id="b"><path fill="#fff" d="M0 0h42v42H0z"/></clipPath><clipPath id="p"><path fill="#fff" d="M29 29h19v19H29z"/></clipPath><clipPath id="q"><path fill="#fff" d="M32.188 31.375h12.625v14.25H32.188z"/></clipPath><filter id="c" width="42" height="42" x="0" y="0" color-interpolation-filters="sRGB" filterUnits="userSpaceOnUse"><feFlood flood-opacity="0" result="BackgroundImageFix"/><feBlend in="SourceGraphic" in2="BackgroundImageFix" result="shape"/><feColorMatrix in="SourceAlpha" result="hardAlpha" values="0 0 0 0 0 0 0 0 0 0 0 0 0 0 0 0 0 0 127 0"/><feOffset/><feGaussianBlur stdDeviation="2.625"/><feComposite in2="hardAlpha" k2="-1" k3="1" operator="arithmetic"/><feColorMatrix values="0 0 0 0 0 0 0 0 0 0 0 0 0 0 0 0 0 0 0.45 0"/><feBlend in2="shape" result="effect1_innerShadow_8874_26143"/></filter><filter id="f" width="23.625" height="24.938" x="7.875" y="9.188" color-interpolation-filters="sRGB" filterUnits="userSpaceOnUse"><feFlood flood-opacity="0" result="BackgroundImageFix"/><feColorMatrix in="SourceAlpha" result="hardAlpha" values="0 0 0 0 0 0 0 0 0 0 0 0 0 0 0 0 0 0 127 0"/><feOffset dy="1.313"/><feComposite in2="hardAlpha" operator="out"/><feColorMatrix values="0 0 0 0 0 0 0 0 0 0 0 0 0 0 0 0 0 0 0.3 0"/><feBlend in2="BackgroundImageFix" result="effect1_dropShadow_8874_26143"/><feBlend in="SourceGraphic" in2="effect1_dropShadow_8874_26143" result="shape"/></filter></defs></svg>