<svg width="138" height="32" viewBox="0 0 138 32" fill="none" xmlns="http://www.w3.org/2000/svg">
<path fill-rule="evenodd" clip-rule="evenodd" d="M119.006 8.95997C119.006 8.35997 119.216 7.84997 119.646 7.41997C120.066 6.99997 120.586 6.77997 121.186 6.77997C121.786 6.77997 122.296 6.98997 122.726 7.41997C123.156 7.84997 123.366 8.35997 123.366 8.95997C123.366 9.55997 123.156 10.07 122.726 10.5C122.306 10.92 121.786 11.14 121.186 11.14C120.586 11.14 120.076 10.93 119.646 10.5C119.216 10.07 119.006 9.55997 119.006 8.95997ZM119.306 12.78H123.056V24.92H119.306V12.78ZM52.2593 7.22986H40.2393V24.9299H52.7093V21.3299H44.1393V17.7299H51.8093V14.1299H44.1393V10.8299H52.2593V7.22986ZM62.6894 24.93H66.2894L66.3194 24.92V12.78H62.5694V18.83C62.5694 19.23 62.5394 19.61 62.4894 19.98C62.4394 20.35 62.3394 20.68 62.1794 20.97C62.0194 21.26 61.7894 21.49 61.4894 21.67C61.1894 21.84 60.7994 21.93 60.3194 21.93C59.8394 21.93 59.4694 21.83 59.2094 21.63C58.9494 21.43 58.7594 21.18 58.6294 20.86C58.4994 20.54 58.4294 20.19 58.3994 19.82C58.3694 19.44 58.3594 19.08 58.3594 18.73V12.78H54.6094V19.48C54.6094 20.29 54.6594 21.05 54.7694 21.75C54.8794 22.45 55.0894 23.05 55.4194 23.57C55.7394 24.08 56.1994 24.49 56.7894 24.78C57.3794 25.07 58.1494 25.22 59.0994 25.22C59.5494 25.22 59.9694 25.17 60.3494 25.05C60.7294 24.93 61.0694 24.78 61.3694 24.6C61.6694 24.42 61.9194 24.21 62.1294 23.98C62.3394 23.75 62.5094 23.51 62.6394 23.28H62.6894V24.93ZM68.6194 12.78H72.3694V14.73H72.4194C72.8194 13.98 73.2894 13.42 73.8394 13.04C74.3894 12.66 75.0794 12.48 75.9094 12.48C76.1294 12.48 76.3394 12.48 76.5594 12.5C76.7794 12.52 76.9794 12.55 77.1594 12.6V16.02C76.8894 15.94 76.6294 15.87 76.3694 15.83C76.1094 15.79 75.8394 15.77 75.5594 15.77C74.8394 15.77 74.2794 15.87 73.8594 16.07C73.4394 16.27 73.1194 16.55 72.8994 16.91C72.6794 17.27 72.5294 17.7 72.4594 18.2C72.3894 18.7 72.3594 19.25 72.3594 19.85V24.92H68.6094V12.78H68.6194ZM78.0792 16.23C77.7292 17.01 77.5592 17.88 77.5592 18.85C77.5592 19.81 77.7292 20.69 78.0792 21.47C78.4292 22.25 78.9092 22.92 79.5192 23.48C80.1292 24.04 80.8492 24.47 81.6692 24.77C82.4992 25.07 83.3692 25.22 84.3092 25.22C85.2492 25.22 86.1192 25.07 86.9492 24.77C87.7792 24.47 88.4892 24.04 89.0992 23.48C89.7092 22.92 90.1893 22.25 90.5392 21.47C90.8892 20.69 91.0592 19.81 91.0592 18.85C91.0592 17.89 90.8892 17.01 90.5392 16.23C90.1893 15.45 89.7092 14.78 89.0992 14.22C88.4892 13.66 87.7692 13.23 86.9492 12.93C86.1192 12.63 85.2492 12.48 84.3092 12.48C83.3692 12.48 82.4992 12.63 81.6692 12.93C80.8392 13.23 80.1292 13.66 79.5192 14.22C78.9092 14.78 78.4292 15.45 78.0792 16.23ZM82.0992 21.07C81.5692 20.51 81.3092 19.77 81.3092 18.85C81.3092 17.94 81.5792 17.2 82.0992 16.63C82.6192 16.06 83.3592 15.78 84.3092 15.78C85.2592 15.78 85.9892 16.07 86.5192 16.63C87.0492 17.19 87.3092 17.94 87.3092 18.85C87.3092 19.76 87.0392 20.5 86.5192 21.07C85.9992 21.64 85.2592 21.92 84.3092 21.92C83.3592 21.92 82.6292 21.63 82.0992 21.07ZM100.835 16.6998C100.655 16.4298 100.395 16.2098 100.065 16.0398C99.7354 15.8598 99.3754 15.7798 98.9954 15.7798C98.0454 15.7798 97.3054 16.0598 96.7854 16.6298C96.2654 17.1998 95.9954 17.9398 95.9954 18.8498C95.9954 19.7598 96.2554 20.5098 96.7854 21.0698C97.3154 21.6298 98.0454 21.9198 98.9954 21.9198C99.4154 21.9198 99.7654 21.8298 100.065 21.6498C100.365 21.4698 100.625 21.2498 100.835 20.9998L103.305 23.5998C102.725 24.1998 102.035 24.6198 101.245 24.8598C100.455 25.0998 99.7054 25.2198 98.9854 25.2198C98.0554 25.2198 97.1754 25.0698 96.3454 24.7698C95.5154 24.4698 94.8054 24.0398 94.1954 23.4798C93.5854 22.9198 93.1054 22.2498 92.7554 21.4698C92.4054 20.6898 92.2354 19.8098 92.2354 18.8498C92.2354 17.8898 92.4154 17.0098 92.7554 16.2298C93.1054 15.4498 93.5854 14.7798 94.1954 14.2198C94.8054 13.6598 95.5154 13.2298 96.3454 12.9298C97.1654 12.6298 98.0454 12.4798 98.9854 12.4798C99.7054 12.4798 100.455 12.5998 101.245 12.8398C102.035 13.0798 102.725 13.4998 103.305 14.0998L100.835 16.6998ZM104.406 16.2298C104.056 17.0098 103.886 17.8798 103.886 18.8498C103.886 19.8098 104.056 20.6898 104.406 21.4698C104.756 22.2498 105.236 22.9198 105.846 23.4798C106.456 24.0398 107.176 24.4698 107.996 24.7698C108.826 25.0698 109.696 25.2198 110.636 25.2198C111.576 25.2198 112.446 25.0698 113.276 24.7698C114.106 24.4698 114.816 24.0398 115.426 23.4798C116.036 22.9198 116.516 22.2498 116.866 21.4698C117.216 20.6898 117.386 19.8098 117.386 18.8498C117.386 17.8898 117.216 17.0098 116.866 16.2298C116.516 15.4498 116.036 14.7798 115.426 14.2198C114.816 13.6598 114.096 13.2298 113.276 12.9298C112.446 12.6298 111.576 12.4798 110.636 12.4798C109.696 12.4798 108.826 12.6298 107.996 12.9298C107.166 13.2298 106.456 13.6598 105.846 14.2198C105.236 14.7798 104.756 15.4498 104.406 16.2298ZM108.426 21.0698C107.896 20.5098 107.636 19.7698 107.636 18.8498C107.636 17.9398 107.906 17.1998 108.426 16.6298C108.946 16.0598 109.686 15.7798 110.636 15.7798C111.586 15.7798 112.316 16.0698 112.846 16.6298C113.376 17.1898 113.636 17.9398 113.636 18.8498C113.636 19.7598 113.366 20.4998 112.846 21.0698C112.326 21.6398 111.586 21.9198 110.636 21.9198C109.686 21.9198 108.956 21.6298 108.426 21.0698ZM129.026 12.78H125.426H125.416V24.92H129.166V18.87C129.166 18.47 129.186 18.09 129.236 17.72C129.286 17.35 129.386 17.02 129.546 16.73C129.706 16.44 129.936 16.2 130.236 16.03C130.536 15.86 130.926 15.77 131.406 15.77C131.886 15.77 132.256 15.87 132.516 16.07C132.766 16.26 132.956 16.52 133.086 16.84C133.216 17.16 133.286 17.5 133.316 17.88C133.346 18.26 133.356 18.62 133.356 18.97V24.92H137.106V18.22C137.106 17.41 137.056 16.65 136.936 15.95C136.826 15.25 136.606 14.65 136.276 14.13C135.956 13.62 135.496 13.21 134.916 12.92C134.336 12.63 133.566 12.48 132.616 12.48C132.166 12.48 131.746 12.54 131.366 12.66C130.986 12.78 130.646 12.93 130.346 13.11C130.046 13.29 129.796 13.5 129.576 13.73C129.356 13.96 129.196 14.2 129.076 14.43H129.026V12.78Z" fill="#272B38"/>
<g clip-path="url(#clip0_1762_5194)">
<g filter="url(#filter0_i_1762_5194)">
<path d="M16.6611 32C25.4977 32 32.6611 24.8366 32.6611 16C32.6611 7.16344 25.4977 0 16.6611 0C7.82458 0 0.661133 7.16344 0.661133 16C0.661133 24.8366 7.82458 32 16.6611 32Z" fill="url(#paint0_linear_1762_5194)"/>
</g>
<path d="M16.6611 1C24.9311 1 31.6611 7.73 31.6611 16C31.6611 24.27 24.9311 31 16.6611 31C8.39113 31 1.66113 24.27 1.66113 16C1.66113 7.73 8.39113 1 16.6611 1ZM16.6611 0C7.82113 0 0.661133 7.16 0.661133 16C0.661133 24.84 7.82113 32 16.6611 32C25.5011 32 32.6611 24.84 32.6611 16C32.6611 7.16 25.5011 0 16.6611 0Z" fill="url(#paint1_linear_1762_5194)"/>
<g filter="url(#filter1_d_1762_5194)">
<path d="M20.6611 25V23H12.6611V25H20.6611Z" fill="url(#paint2_linear_1762_5194)"/>
<path d="M22.6611 21H20.6611V23H22.6611V21Z" fill="url(#paint3_linear_1762_5194)"/>
<path d="M12.6611 21H10.6611V23H12.6611V21Z" fill="url(#paint4_linear_1762_5194)"/>
<path d="M24.6611 19H22.6611V21H24.6611V19Z" fill="url(#paint5_linear_1762_5194)"/>
<path d="M24.6611 11H22.6611V13H24.6611V11Z" fill="url(#paint6_linear_1762_5194)"/>
<path d="M8.66113 13H6.66113V15H8.66113V17H6.66113V19H8.66113V21H10.6611V19H18.6611V17H10.6611V15H20.6611V13H10.6611V11H8.66113V13Z" fill="url(#paint7_linear_1762_5194)"/>
<path d="M22.6611 9H20.6611V11H22.6611V9Z" fill="url(#paint8_linear_1762_5194)"/>
<path d="M12.6611 9H10.6611V11H12.6611V9Z" fill="url(#paint9_linear_1762_5194)"/>
<path d="M12.6611 7V9H20.6611V7H12.6611Z" fill="url(#paint10_linear_1762_5194)"/>
</g>
</g>
<defs>
<filter id="filter0_i_1762_5194" x="0.661133" y="0" width="32" height="32" filterUnits="userSpaceOnUse" color-interpolation-filters="sRGB">
<feFlood flood-opacity="0" result="BackgroundImageFix"/>
<feBlend mode="normal" in="SourceGraphic" in2="BackgroundImageFix" result="shape"/>
<feColorMatrix in="SourceAlpha" type="matrix" values="0 0 0 0 0 0 0 0 0 0 0 0 0 0 0 0 0 0 127 0" result="hardAlpha"/>
<feOffset/>
<feGaussianBlur stdDeviation="2"/>
<feComposite in2="hardAlpha" operator="arithmetic" k2="-1" k3="1"/>
<feColorMatrix type="matrix" values="0 0 0 0 0 0 0 0 0 0 0 0 0 0 0 0 0 0 0.45 0"/>
<feBlend mode="normal" in2="shape" result="effect1_innerShadow_1762_5194"/>
</filter>
<filter id="filter1_d_1762_5194" x="6.66113" y="7" width="18" height="19" filterUnits="userSpaceOnUse" color-interpolation-filters="sRGB">
<feFlood flood-opacity="0" result="BackgroundImageFix"/>
<feColorMatrix in="SourceAlpha" type="matrix" values="0 0 0 0 0 0 0 0 0 0 0 0 0 0 0 0 0 0 127 0" result="hardAlpha"/>
<feOffset dy="1"/>
<feComposite in2="hardAlpha" operator="out"/>
<feColorMatrix type="matrix" values="0 0 0 0 0 0 0 0 0 0 0 0 0 0 0 0 0 0 0.3 0"/>
<feBlend mode="normal" in2="BackgroundImageFix" result="effect1_dropShadow_1762_5194"/>
<feBlend mode="normal" in="SourceGraphic" in2="effect1_dropShadow_1762_5194" result="shape"/>
</filter>
<linearGradient id="paint0_linear_1762_5194" x1="16.6611" y1="32" x2="16.6611" y2="0" gradientUnits="userSpaceOnUse">
<stop stop-color="#424756"/>
<stop offset="0.31" stop-color="#505565"/>
<stop offset="0.42" stop-color="#5F6475"/>
<stop offset="0.61" stop-color="#747A8B"/>
<stop offset="0.73" stop-color="#7C8394"/>
<stop offset="0.88" stop-color="#757C8C"/>
<stop offset="1" stop-color="#6E7484"/>
</linearGradient>
<linearGradient id="paint1_linear_1762_5194" x1="16.6611" y1="32" x2="16.6611" y2="0" gradientUnits="userSpaceOnUse">
<stop stop-color="#6D6E7C"/>
<stop offset="0.17" stop-color="#7A7C8A"/>
<stop offset="0.51" stop-color="#9EA2B1"/>
<stop offset="0.67" stop-color="#B3B8C7"/>
</linearGradient>
<linearGradient id="paint2_linear_1762_5194" x1="15.6611" y1="8" x2="15.6611" y2="23.8333" gradientUnits="userSpaceOnUse">
<stop offset="0.4" stop-color="white"/>
<stop offset="0.54" stop-color="#EAEAEC"/>
<stop offset="0.84" stop-color="#C4C6CB"/>
<stop offset="0.99" stop-color="#B6B8BF"/>
</linearGradient>
<linearGradient id="paint3_linear_1762_5194" x1="15.6611" y1="8" x2="15.6611" y2="23.8333" gradientUnits="userSpaceOnUse">
<stop offset="0.4" stop-color="white"/>
<stop offset="0.54" stop-color="#EAEAEC"/>
<stop offset="0.84" stop-color="#C4C6CB"/>
<stop offset="0.99" stop-color="#B6B8BF"/>
</linearGradient>
<linearGradient id="paint4_linear_1762_5194" x1="15.6611" y1="8" x2="15.6611" y2="23.8333" gradientUnits="userSpaceOnUse">
<stop offset="0.4" stop-color="white"/>
<stop offset="0.54" stop-color="#EAEAEC"/>
<stop offset="0.84" stop-color="#C4C6CB"/>
<stop offset="0.99" stop-color="#B6B8BF"/>
</linearGradient>
<linearGradient id="paint5_linear_1762_5194" x1="15.6611" y1="8" x2="15.6611" y2="23.8333" gradientUnits="userSpaceOnUse">
<stop offset="0.4" stop-color="white"/>
<stop offset="0.54" stop-color="#EAEAEC"/>
<stop offset="0.84" stop-color="#C4C6CB"/>
<stop offset="0.99" stop-color="#B6B8BF"/>
</linearGradient>
<linearGradient id="paint6_linear_1762_5194" x1="15.6611" y1="8" x2="15.6611" y2="23.8333" gradientUnits="userSpaceOnUse">
<stop offset="0.4" stop-color="white"/>
<stop offset="0.54" stop-color="#EAEAEC"/>
<stop offset="0.84" stop-color="#C4C6CB"/>
<stop offset="0.99" stop-color="#B6B8BF"/>
</linearGradient>
<linearGradient id="paint7_linear_1762_5194" x1="15.6611" y1="8" x2="15.6611" y2="23.8333" gradientUnits="userSpaceOnUse">
<stop offset="0.4" stop-color="white"/>
<stop offset="0.54" stop-color="#EAEAEC"/>
<stop offset="0.84" stop-color="#C4C6CB"/>
<stop offset="0.99" stop-color="#B6B8BF"/>
</linearGradient>
<linearGradient id="paint8_linear_1762_5194" x1="15.6611" y1="8" x2="15.6611" y2="23.8333" gradientUnits="userSpaceOnUse">
<stop offset="0.4" stop-color="white"/>
<stop offset="0.54" stop-color="#EAEAEC"/>
<stop offset="0.84" stop-color="#C4C6CB"/>
<stop offset="0.99" stop-color="#B6B8BF"/>
</linearGradient>
<linearGradient id="paint9_linear_1762_5194" x1="15.6611" y1="8" x2="15.6611" y2="23.8333" gradientUnits="userSpaceOnUse">
<stop offset="0.4" stop-color="white"/>
<stop offset="0.54" stop-color="#EAEAEC"/>
<stop offset="0.84" stop-color="#C4C6CB"/>
<stop offset="0.99" stop-color="#B6B8BF"/>
</linearGradient>
<linearGradient id="paint10_linear_1762_5194" x1="15.6611" y1="8" x2="15.6611" y2="23.8333" gradientUnits="userSpaceOnUse">
<stop offset="0.4" stop-color="white"/>
<stop offset="0.54" stop-color="#EAEAEC"/>
<stop offset="0.84" stop-color="#C4C6CB"/>
<stop offset="0.99" stop-color="#B6B8BF"/>
</linearGradient>
<clipPath id="clip0_1762_5194">
<rect width="32" height="32" fill="white" transform="translate(0.661133)"/>
</clipPath>
</defs>
</svg>
