<svg xmlns="http://www.w3.org/2000/svg" width="48" height="48" fill="none"><g clip-path="url(#a)"><g clip-path="url(#b)"><g filter="url(#c)"><path fill="url(#d)" d="M21 42c11.598 0 21-9.402 21-21S32.598 0 21 0 0 9.402 0 21s9.402 21 21 21Z"/></g><path fill="url(#e)" d="M21 1.313c10.854 0 19.688 8.833 19.688 19.687 0 10.854-8.834 19.688-19.688 19.688S1.312 31.854 1.312 21 10.146 1.312 21 1.312ZM21 0C9.398 0 0 9.398 0 21s9.398 21 21 21 21-9.398 21-21S32.602 0 21 0Z"/><g filter="url(#f)"><path fill="url(#g)" d="M26.25 32.813v-2.626h-10.5v2.625h10.5Z"/><path fill="url(#h)" d="M28.875 27.563H26.25v2.625h2.625v-2.625Z"/><path fill="url(#i)" d="M15.75 27.563h-2.625v2.625h2.625v-2.625Z"/><path fill="url(#j)" d="M31.5 24.938h-2.625v2.625H31.5v-2.625Z"/><path fill="url(#k)" d="M31.5 14.438h-2.625v2.624H31.5v-2.625Z"/><path fill="url(#l)" d="M10.5 17.063H7.875v2.625H10.5v2.625H7.875v2.625H10.5v2.625h2.625v-2.625h10.5v-2.625h-10.5v-2.625H26.25v-2.625H13.125v-2.625H10.5v2.624Z"/><path fill="url(#m)" d="M28.875 11.813H26.25v2.624h2.625v-2.624Z"/><path fill="url(#n)" d="M15.75 11.813h-2.625v2.624h2.625v-2.624Z"/><path fill="url(#o)" d="M15.75 9.188v2.624h10.5V9.188h-10.5Z"/></g></g><path fill="#fff" d="M40.888 27.76A21.056 21.056 0 0 1 27.76 40.888c-.17-.769-.26-1.568-.26-2.388 0-6.075 4.925-11 11-11 .82 0 1.62.09 2.388.26Z"/><g clip-path="url(#p)"><path fill="#FF0420" d="M38.5 48a9.5 9.5 0 1 0 0-19 9.5 9.5 0 0 0 0 19Z"/><path fill="#fff" d="M35.73 41.023c-.567 0-1.03-.133-1.391-.399-.358-.27-.536-.657-.536-1.155 0-.106.011-.232.034-.384.06-.342.148-.752.262-1.235.323-1.307 1.16-1.96 2.504-1.96.365 0 .696.06.984.186a1.455 1.455 0 0 1 .935 1.398c0 .099-.011.224-.034.376a15.42 15.42 0 0 1-.258 1.235c-.167.65-.452 1.14-.863 1.463-.406.32-.954.475-1.638.475Zm.102-1.026c.266 0 .49-.08.676-.235.19-.156.327-.396.407-.722.11-.449.194-.836.25-1.17.02-.1.031-.202.031-.309 0-.433-.224-.65-.676-.65-.266 0-.494.08-.684.236-.186.156-.32.395-.4.722-.087.32-.17.707-.258 1.17-.019.096-.03.194-.03.3-.004.442.228.658.684.658Zm3.022.958a.148.148 0 0 1-.121-.05.186.186 0 0 1-.023-.129l.984-4.636a.19.19 0 0 1 .08-.129.21.21 0 0 1 .137-.05h1.896c.528 0 .95.11 1.27.327.322.22.486.536.486.95 0 .118-.016.244-.042.373-.118.547-.358.95-.722 1.212-.358.262-.848.391-1.47.391h-.962l-.327 1.562a.204.204 0 0 1-.08.13.21.21 0 0 1-.137.049h-.969Zm2.523-2.725a.842.842 0 0 0 .521-.163.781.781 0 0 0 .3-.471 1.1 1.1 0 0 0 .023-.213.411.411 0 0 0-.121-.316c-.08-.076-.22-.114-.415-.114h-.855l-.27 1.277h.817Z"/></g></g><defs><linearGradient id="d" x1="21" x2="21" y1="42" y2="0" gradientUnits="userSpaceOnUse"><stop stop-color="#424756"/><stop offset=".31" stop-color="#505565"/><stop offset=".42" stop-color="#5F6475"/><stop offset=".61" stop-color="#747A8B"/><stop offset=".73" stop-color="#7C8394"/><stop offset=".88" stop-color="#757C8C"/><stop offset="1" stop-color="#6E7484"/></linearGradient><linearGradient id="e" x1="21" x2="21" y1="42" y2="0" gradientUnits="userSpaceOnUse"><stop stop-color="#6D6E7C"/><stop offset=".17" stop-color="#7A7C8A"/><stop offset=".51" stop-color="#9EA2B1"/><stop offset=".67" stop-color="#B3B8C7"/></linearGradient><linearGradient id="g" x1="19.688" x2="19.688" y1="10.5" y2="31.281" gradientUnits="userSpaceOnUse"><stop offset=".4" stop-color="#fff"/><stop offset=".54" stop-color="#EAEAEC"/><stop offset=".84" stop-color="#C4C6CB"/><stop offset=".99" stop-color="#B6B8BF"/></linearGradient><linearGradient id="h" x1="19.688" x2="19.688" y1="10.5" y2="31.281" gradientUnits="userSpaceOnUse"><stop offset=".4" stop-color="#fff"/><stop offset=".54" stop-color="#EAEAEC"/><stop offset=".84" stop-color="#C4C6CB"/><stop offset=".99" stop-color="#B6B8BF"/></linearGradient><linearGradient id="i" x1="19.688" x2="19.688" y1="10.5" y2="31.281" gradientUnits="userSpaceOnUse"><stop offset=".4" stop-color="#fff"/><stop offset=".54" stop-color="#EAEAEC"/><stop offset=".84" stop-color="#C4C6CB"/><stop offset=".99" stop-color="#B6B8BF"/></linearGradient><linearGradient id="j" x1="19.688" x2="19.688" y1="10.5" y2="31.281" gradientUnits="userSpaceOnUse"><stop offset=".4" stop-color="#fff"/><stop offset=".54" stop-color="#EAEAEC"/><stop offset=".84" stop-color="#C4C6CB"/><stop offset=".99" stop-color="#B6B8BF"/></linearGradient><linearGradient id="k" x1="19.688" x2="19.688" y1="10.5" y2="31.281" gradientUnits="userSpaceOnUse"><stop offset=".4" stop-color="#fff"/><stop offset=".54" stop-color="#EAEAEC"/><stop offset=".84" stop-color="#C4C6CB"/><stop offset=".99" stop-color="#B6B8BF"/></linearGradient><linearGradient id="l" x1="19.688" x2="19.688" y1="10.5" y2="31.281" gradientUnits="userSpaceOnUse"><stop offset=".4" stop-color="#fff"/><stop offset=".54" stop-color="#EAEAEC"/><stop offset=".84" stop-color="#C4C6CB"/><stop offset=".99" stop-color="#B6B8BF"/></linearGradient><linearGradient id="m" x1="19.688" x2="19.688" y1="10.5" y2="31.281" gradientUnits="userSpaceOnUse"><stop offset=".4" stop-color="#fff"/><stop offset=".54" stop-color="#EAEAEC"/><stop offset=".84" stop-color="#C4C6CB"/><stop offset=".99" stop-color="#B6B8BF"/></linearGradient><linearGradient id="n" x1="19.688" x2="19.688" y1="10.5" y2="31.281" gradientUnits="userSpaceOnUse"><stop offset=".4" stop-color="#fff"/><stop offset=".54" stop-color="#EAEAEC"/><stop offset=".84" stop-color="#C4C6CB"/><stop offset=".99" stop-color="#B6B8BF"/></linearGradient><linearGradient id="o" x1="19.688" x2="19.688" y1="10.5" y2="31.281" gradientUnits="userSpaceOnUse"><stop offset=".4" stop-color="#fff"/><stop offset=".54" stop-color="#EAEAEC"/><stop offset=".84" stop-color="#C4C6CB"/><stop offset=".99" stop-color="#B6B8BF"/></linearGradient><clipPath id="a"><path fill="#fff" d="M0 0h48v48H0z"/></clipPath><clipPath id="b"><path fill="#fff" d="M0 0h42v42H0z"/></clipPath><clipPath id="p"><path fill="#fff" d="M29 29h19v19H29z"/></clipPath><filter id="c" width="42" height="42" x="0" y="0" color-interpolation-filters="sRGB" filterUnits="userSpaceOnUse"><feFlood flood-opacity="0" result="BackgroundImageFix"/><feBlend in="SourceGraphic" in2="BackgroundImageFix" result="shape"/><feColorMatrix in="SourceAlpha" result="hardAlpha" values="0 0 0 0 0 0 0 0 0 0 0 0 0 0 0 0 0 0 127 0"/><feOffset/><feGaussianBlur stdDeviation="2.625"/><feComposite in2="hardAlpha" k2="-1" k3="1" operator="arithmetic"/><feColorMatrix values="0 0 0 0 0 0 0 0 0 0 0 0 0 0 0 0 0 0 0.45 0"/><feBlend in2="shape" result="effect1_innerShadow_8874_26205"/></filter><filter id="f" width="23.625" height="24.938" x="7.875" y="9.188" color-interpolation-filters="sRGB" filterUnits="userSpaceOnUse"><feFlood flood-opacity="0" result="BackgroundImageFix"/><feColorMatrix in="SourceAlpha" result="hardAlpha" values="0 0 0 0 0 0 0 0 0 0 0 0 0 0 0 0 0 0 127 0"/><feOffset dy="1.313"/><feComposite in2="hardAlpha" operator="out"/><feColorMatrix values="0 0 0 0 0 0 0 0 0 0 0 0 0 0 0 0 0 0 0.3 0"/><feBlend in2="BackgroundImageFix" result="effect1_dropShadow_8874_26205"/><feBlend in="SourceGraphic" in2="effect1_dropShadow_8874_26205" result="shape"/></filter></defs></svg>