<svg width="128" height="128" viewBox="0 0 128 128" fill="none" xmlns="http://www.w3.org/2000/svg">
<g clip-path="url(#clip0_1750_12395)">
<g filter="url(#filter0_i_1750_12395)">
<path d="M64 128C99.3462 128 128 99.3462 128 64C128 28.6538 99.3462 0 64 0C28.6538 0 0 28.6538 0 64C0 99.3462 28.6538 128 64 128Z" fill="url(#paint0_linear_1750_12395)"/>
</g>
<path d="M64 4C97.08 4 124 30.92 124 64C124 97.08 97.08 124 64 124C30.92 124 4 97.08 4 64C4 30.92 30.92 4 64 4ZM64 0C28.64 0 0 28.64 0 64C0 99.36 28.64 128 64 128C99.36 128 128 99.36 128 64C128 28.64 99.36 0 64 0Z" fill="url(#paint1_linear_1750_12395)"/>
<g filter="url(#filter1_d_1750_12395)">
<path d="M80 100V92H48V100H80Z" fill="url(#paint2_linear_1750_12395)"/>
<path d="M88 84H80V92H88V84Z" fill="url(#paint3_linear_1750_12395)"/>
<path d="M48 84H40V92H48V84Z" fill="url(#paint4_linear_1750_12395)"/>
<path d="M96 76H88V84H96V76Z" fill="url(#paint5_linear_1750_12395)"/>
<path d="M96 44H88V52H96V44Z" fill="url(#paint6_linear_1750_12395)"/>
<path d="M32 52H24V60H32V68H24V76H32V84H40V76H72V68H40V60H80V52H40V44H32V52Z" fill="url(#paint7_linear_1750_12395)"/>
<path d="M88 36H80V44H88V36Z" fill="url(#paint8_linear_1750_12395)"/>
<path d="M48 36H40V44H48V36Z" fill="url(#paint9_linear_1750_12395)"/>
<path d="M48 28V36H80V28H48Z" fill="url(#paint10_linear_1750_12395)"/>
</g>
</g>
<defs>
<filter id="filter0_i_1750_12395" x="0" y="0" width="128" height="128" filterUnits="userSpaceOnUse" color-interpolation-filters="sRGB">
<feFlood flood-opacity="0" result="BackgroundImageFix"/>
<feBlend mode="normal" in="SourceGraphic" in2="BackgroundImageFix" result="shape"/>
<feColorMatrix in="SourceAlpha" type="matrix" values="0 0 0 0 0 0 0 0 0 0 0 0 0 0 0 0 0 0 127 0" result="hardAlpha"/>
<feOffset/>
<feGaussianBlur stdDeviation="8"/>
<feComposite in2="hardAlpha" operator="arithmetic" k2="-1" k3="1"/>
<feColorMatrix type="matrix" values="0 0 0 0 0 0 0 0 0 0 0 0 0 0 0 0 0 0 0.45 0"/>
<feBlend mode="normal" in2="shape" result="effect1_innerShadow_1750_12395"/>
</filter>
<filter id="filter1_d_1750_12395" x="24" y="28" width="72" height="76" filterUnits="userSpaceOnUse" color-interpolation-filters="sRGB">
<feFlood flood-opacity="0" result="BackgroundImageFix"/>
<feColorMatrix in="SourceAlpha" type="matrix" values="0 0 0 0 0 0 0 0 0 0 0 0 0 0 0 0 0 0 127 0" result="hardAlpha"/>
<feOffset dy="4"/>
<feComposite in2="hardAlpha" operator="out"/>
<feColorMatrix type="matrix" values="0 0 0 0 0 0 0 0 0 0 0 0 0 0 0 0 0 0 0.3 0"/>
<feBlend mode="normal" in2="BackgroundImageFix" result="effect1_dropShadow_1750_12395"/>
<feBlend mode="normal" in="SourceGraphic" in2="effect1_dropShadow_1750_12395" result="shape"/>
</filter>
<linearGradient id="paint0_linear_1750_12395" x1="64" y1="128" x2="64" y2="0" gradientUnits="userSpaceOnUse">
<stop stop-color="#424756"/>
<stop offset="0.31" stop-color="#505565"/>
<stop offset="0.42" stop-color="#5F6475"/>
<stop offset="0.61" stop-color="#747A8B"/>
<stop offset="0.73" stop-color="#7C8394"/>
<stop offset="0.88" stop-color="#757C8C"/>
<stop offset="1" stop-color="#6E7484"/>
</linearGradient>
<linearGradient id="paint1_linear_1750_12395" x1="64" y1="128" x2="64" y2="0" gradientUnits="userSpaceOnUse">
<stop stop-color="#6D6E7C"/>
<stop offset="0.17" stop-color="#7A7C8A"/>
<stop offset="0.51" stop-color="#9EA2B1"/>
<stop offset="0.67" stop-color="#B3B8C7"/>
</linearGradient>
<linearGradient id="paint2_linear_1750_12395" x1="60" y1="32" x2="60" y2="95.3333" gradientUnits="userSpaceOnUse">
<stop offset="0.4" stop-color="white"/>
<stop offset="0.54" stop-color="#EAEAEC"/>
<stop offset="0.84" stop-color="#C4C6CB"/>
<stop offset="0.99" stop-color="#B6B8BF"/>
</linearGradient>
<linearGradient id="paint3_linear_1750_12395" x1="60" y1="32" x2="60" y2="95.3333" gradientUnits="userSpaceOnUse">
<stop offset="0.4" stop-color="white"/>
<stop offset="0.54" stop-color="#EAEAEC"/>
<stop offset="0.84" stop-color="#C4C6CB"/>
<stop offset="0.99" stop-color="#B6B8BF"/>
</linearGradient>
<linearGradient id="paint4_linear_1750_12395" x1="60" y1="32" x2="60" y2="95.3333" gradientUnits="userSpaceOnUse">
<stop offset="0.4" stop-color="white"/>
<stop offset="0.54" stop-color="#EAEAEC"/>
<stop offset="0.84" stop-color="#C4C6CB"/>
<stop offset="0.99" stop-color="#B6B8BF"/>
</linearGradient>
<linearGradient id="paint5_linear_1750_12395" x1="60" y1="32" x2="60" y2="95.3333" gradientUnits="userSpaceOnUse">
<stop offset="0.4" stop-color="white"/>
<stop offset="0.54" stop-color="#EAEAEC"/>
<stop offset="0.84" stop-color="#C4C6CB"/>
<stop offset="0.99" stop-color="#B6B8BF"/>
</linearGradient>
<linearGradient id="paint6_linear_1750_12395" x1="60" y1="32" x2="60" y2="95.3333" gradientUnits="userSpaceOnUse">
<stop offset="0.4" stop-color="white"/>
<stop offset="0.54" stop-color="#EAEAEC"/>
<stop offset="0.84" stop-color="#C4C6CB"/>
<stop offset="0.99" stop-color="#B6B8BF"/>
</linearGradient>
<linearGradient id="paint7_linear_1750_12395" x1="60" y1="32" x2="60" y2="95.3333" gradientUnits="userSpaceOnUse">
<stop offset="0.4" stop-color="white"/>
<stop offset="0.54" stop-color="#EAEAEC"/>
<stop offset="0.84" stop-color="#C4C6CB"/>
<stop offset="0.99" stop-color="#B6B8BF"/>
</linearGradient>
<linearGradient id="paint8_linear_1750_12395" x1="60" y1="32" x2="60" y2="95.3333" gradientUnits="userSpaceOnUse">
<stop offset="0.4" stop-color="white"/>
<stop offset="0.54" stop-color="#EAEAEC"/>
<stop offset="0.84" stop-color="#C4C6CB"/>
<stop offset="0.99" stop-color="#B6B8BF"/>
</linearGradient>
<linearGradient id="paint9_linear_1750_12395" x1="60" y1="32" x2="60" y2="95.3333" gradientUnits="userSpaceOnUse">
<stop offset="0.4" stop-color="white"/>
<stop offset="0.54" stop-color="#EAEAEC"/>
<stop offset="0.84" stop-color="#C4C6CB"/>
<stop offset="0.99" stop-color="#B6B8BF"/>
</linearGradient>
<linearGradient id="paint10_linear_1750_12395" x1="60" y1="32" x2="60" y2="95.3333" gradientUnits="userSpaceOnUse">
<stop offset="0.4" stop-color="white"/>
<stop offset="0.54" stop-color="#EAEAEC"/>
<stop offset="0.84" stop-color="#C4C6CB"/>
<stop offset="0.99" stop-color="#B6B8BF"/>
</linearGradient>
<clipPath id="clip0_1750_12395">
<rect width="128" height="128" fill="white"/>
</clipPath>
</defs>
</svg>
